<svg height="480" width="640">
<polygon points="404.33,102.597 174.681,314.102 192.934,102.597" fill = "rgba(255,0,255,1)" />
<polygon points="386.076,314.102 404.33,102.597 174.681,314.102" fill = "rgba(255,0,255,1)" />
<polygon points="174.681,314.102 235.67,377.403 192.934,102.597" fill = "rgba(255,0,255,1)" />
<polygon points="386.076,314.102 447.066,377.403 174.681,314.102" fill = "rgba(255,0,255,1)" />
<polygon points="386.076,314.102 447.066,377.403 404.33,102.597" fill = "rgba(255,0,255,1)" />
<polygon points="447.066,377.403 235.67,377.403 174.681,314.102" fill = "rgba(255,0,255,1)" />
<polygon points="404.33,102.597 465.319,165.898 192.934,102.597" fill = "rgba(255,0,255,1)" />
<polygon points="235.67,377.403 192.934,102.597 253.924,165.898" fill = "rgba(255,0,255,1)" />
<polygon points="465.319,165.898 192.934,102.597 253.924,165.898" fill = "rgba(255,0,255,1)" />
<polygon points="447.066,377.403 404.33,102.597 465.319,165.898" fill = "rgba(255,0,255,1)" />
<polygon points="465.319,165.898 253.924,165.898 235.67,377.403" fill = "rgba(255,0,255,1)" />
<polygon points="447.066,377.403 465.319,165.898 235.67,377.403" fill = "rgba(255,0,255,1)" />
</svg>